<svg xmlns="http://www.w3.org/2000/svg" width="20" height="20" viewBox="0 0 24 24" fill="none" stroke="#f0f6fc" stroke-width="2" stroke-linecap="round" stroke-linejoin="round">
  <path d="M8.5 3.5c-1.8 0-3 1.3-3 2.8-1.4.5-2.3 1.9-2.1 3.4-1 .7-1.5 2-1.2 3.3.3 1.3 1.4 2.2 2.6 2.3-.1 1.5.9 2.9 2.4 3.2 1.3.3 2.6-.3 3.3-1.4"/>
  <path d="M15.5 3.5c1.8 0 3 1.3 3 2.8 1.4.5 2.3 1.9 2.1 3.4 1 .7 1.5 2 1.2 3.3-.3 1.3-1.4 2.2-2.6 2.3.1 1.5-.9 2.9-2.4 3.2-1.3.3-2.6-.3-3.3-1.4"/>
  <path d="M12 4.2v15.6"/>
</svg>
